<svg xmlns:inkscape="http://www.inkscape.org/namespaces/inkscape" xmlns:sodipodi="http://sodipodi.sourceforge.net/DTD/sodipodi-0.dtd" xmlns:xlink="http://www.w3.org/1999/xlink" xmlns="http://www.w3.org/2000/svg" xmlns:svg="http://www.w3.org/2000/svg" width="1920" height="1080" viewBox="0 0 507.99999 285.75001" id="svg5" inkscape:version="1.1.2 (0a00cf5339, 2022-02-04)" sodipodi:docname="bottom_round_edges.svg"><defs id="defs2"><linearGradient inkscape:collect="always" id="linearGradient1819"><stop style="stop-color:#000000;stop-opacity:1" offset="0" id="stop1815"></stop><stop style="stop-color:#000000;stop-opacity:0" offset="1" id="stop1817"></stop></linearGradient><linearGradient inkscape:collect="always" xlink:href="#linearGradient1819" id="linearGradient1821" x1="926.21246" y1="933.43866" x2="926.21246" y2="1059.2307" gradientUnits="userSpaceOnUse"></linearGradient></defs><g inkscape:label="Layer 1" inkscape:groupmode="layer" id="layer1"><path id="rect1497" style="opacity:1;fill:#0000ff;stroke-width:0.475102" d="M 0 990.25977 L 0 1030 L 0 1080 L 1920 1080 L 1920 1030 L 1920 990.25977 A 39.739725 39.739725 0 0 1 1880.2598 1030 L 39.740234 1030 A 39.739725 39.739725 0 0 1 0 990.25977 z " transform="scale(0.26458333)"></path><path id="path1783" style="opacity:0.82197867;fill:url(#linearGradient1821);stroke-width:0.475102;fill-opacity:1" d="M 0 990.25977 L 0 1030 L 0 1080 L 1920 1080 L 1920 1030 L 1920 990.25977 A 39.739725 39.739725 0 0 1 1880.2598 1030 L 39.740234 1030 A 39.739725 39.739725 0 0 1 0 990.25977 z " transform="scale(0.26458333)"></path></g></svg>